<svg xmlns="http://www.w3.org/2000/svg" xmlns:xlink="http://www.w3.org/1999/xlink" width="512" zoomAndPan="magnify" viewBox="0 0 384 383.999986" height="512" preserveAspectRatio="xMidYMid meet" version="1.0"><defs><g/><clipPath id="0fec44de6f"><path d="M 124 69 L 279 69 L 279 177 L 124 177 Z M 124 69 " clip-rule="nonzero"/></clipPath><clipPath id="d26ba5414f"><path d="M 116.230469 31.710938 L 301.867188 91.421875 L 274.078125 177.8125 L 88.445312 118.105469 Z M 116.230469 31.710938 " clip-rule="nonzero"/></clipPath><clipPath id="5035447d82"><path d="M 116.230469 31.710938 L 301.867188 91.421875 L 274.078125 177.8125 L 88.445312 118.105469 Z M 116.230469 31.710938 " clip-rule="nonzero"/></clipPath><clipPath id="4a865f0018"><path d="M 149.214844 48.816406 L 299.816406 97.257812 L 274.441406 176.152344 L 123.835938 127.710938 Z M 149.214844 48.816406 " clip-rule="nonzero"/></clipPath><clipPath id="72c59f3438"><path d="M 149.214844 48.816406 L 299.714844 97.226562 L 274.335938 176.121094 L 123.835938 127.710938 Z M 149.214844 48.816406 " clip-rule="nonzero"/></clipPath><clipPath id="ea4d73847a"><path d="M 94 100 L 177 100 L 177 144 L 94 144 Z M 94 100 " clip-rule="nonzero"/></clipPath><clipPath id="2f5bb3081d"><path d="M 116.230469 31.710938 L 301.867188 91.421875 L 274.078125 177.8125 L 88.445312 118.105469 Z M 116.230469 31.710938 " clip-rule="nonzero"/></clipPath><clipPath id="bc665b2717"><path d="M 116.230469 31.710938 L 301.867188 91.421875 L 274.078125 177.8125 L 88.445312 118.105469 Z M 116.230469 31.710938 " clip-rule="nonzero"/></clipPath><clipPath id="400c10ff8a"><path d="M 95.546875 96.957031 L 182.449219 124.910156 L 175.503906 146.496094 L 88.601562 118.542969 Z M 95.546875 96.957031 " clip-rule="nonzero"/></clipPath><clipPath id="9885da818b"><path d="M 95.546875 96.957031 L 182.449219 124.910156 L 175.617188 146.144531 L 88.714844 118.191406 Z M 95.546875 96.957031 " clip-rule="nonzero"/></clipPath><clipPath id="5be6903f8d"><path d="M 138 62 L 285 62 L 285 145 L 138 145 Z M 138 62 " clip-rule="nonzero"/></clipPath><clipPath id="d0d38d7210"><path d="M 116.230469 31.710938 L 301.867188 91.421875 L 274.078125 177.8125 L 88.445312 118.105469 Z M 116.230469 31.710938 " clip-rule="nonzero"/></clipPath><clipPath id="c1ca57a086"><path d="M 116.230469 31.710938 L 301.867188 91.421875 L 274.078125 177.8125 L 88.445312 118.105469 Z M 116.230469 31.710938 " clip-rule="nonzero"/></clipPath><clipPath id="06c366902a"><path d="M 150 116 L 176 116 L 176 141 L 150 141 Z M 150 116 " clip-rule="nonzero"/></clipPath><clipPath id="c05a183100"><path d="M 116.230469 31.710938 L 301.867188 91.421875 L 274.078125 177.8125 L 88.445312 118.105469 Z M 116.230469 31.710938 " clip-rule="nonzero"/></clipPath><clipPath id="e96d64cee4"><path d="M 116.230469 31.710938 L 301.867188 91.421875 L 274.078125 177.8125 L 88.445312 118.105469 Z M 116.230469 31.710938 " clip-rule="nonzero"/></clipPath><clipPath id="2d552e5552"><path d="M 229 142 L 255 142 L 255 167 L 229 167 Z M 229 142 " clip-rule="nonzero"/></clipPath><clipPath id="9ff4563650"><path d="M 116.230469 31.710938 L 301.867188 91.421875 L 274.078125 177.8125 L 88.445312 118.105469 Z M 116.230469 31.710938 " clip-rule="nonzero"/></clipPath><clipPath id="9a5ef83861"><path d="M 116.230469 31.710938 L 301.867188 91.421875 L 274.078125 177.8125 L 88.445312 118.105469 Z M 116.230469 31.710938 " clip-rule="nonzero"/></clipPath><clipPath id="d551304841"><path d="M 139 128 L 276 128 L 276 177 L 139 177 Z M 139 128 " clip-rule="nonzero"/></clipPath><clipPath id="768ac05bbb"><path d="M 116.230469 31.710938 L 301.867188 91.421875 L 274.078125 177.8125 L 88.445312 118.105469 Z M 116.230469 31.710938 " clip-rule="nonzero"/></clipPath><clipPath id="0892f5aceb"><path d="M 116.230469 31.710938 L 301.867188 91.421875 L 274.078125 177.8125 L 88.445312 118.105469 Z M 116.230469 31.710938 " clip-rule="nonzero"/></clipPath><clipPath id="bfe2ec06f3"><path d="M 141.601562 127.796875 L 276.082031 171.050781 L 274.441406 176.152344 L 139.960938 132.898438 Z M 141.601562 127.796875 " clip-rule="nonzero"/></clipPath><clipPath id="54784366c1"><path d="M 141.601562 127.796875 L 275.976562 171.019531 L 274.335938 176.121094 L 139.960938 132.898438 Z M 141.601562 127.796875 " clip-rule="nonzero"/></clipPath></defs><rect x="-38.4" width="460.8" fill="#ffffff" y="-38.399999" height="460.799983" fill-opacity="1"/><rect x="-38.4" width="460.8" fill="#ffffff" y="-38.399999" height="460.799983" fill-opacity="1"/><rect x="-38.4" width="460.8" fill="#ffffff" y="-38.399999" height="460.799983" fill-opacity="1"/><g fill="#004aad" fill-opacity="1"><g transform="translate(195.101047, 299.982017)"><g/></g></g><g fill="#004aad" fill-opacity="1"><g transform="translate(101.374488, 322.482015)"><g><path d="M 6.09375 0 L 2.625 -9.265625 L 2.5625 -9.265625 C 2.59375 -8.953125 2.613281 -8.535156 2.625 -8.015625 C 2.644531 -7.503906 2.65625 -6.96875 2.65625 -6.40625 L 2.65625 0 L 1.4375 0 L 1.4375 -10.5625 L 3.40625 -10.5625 L 6.65625 -1.90625 L 6.71875 -1.90625 L 10.03125 -10.5625 L 11.984375 -10.5625 L 11.984375 0 L 10.671875 0 L 10.671875 -6.5 C 10.671875 -7.007812 10.679688 -7.515625 10.703125 -8.015625 C 10.734375 -8.523438 10.753906 -8.9375 10.765625 -9.25 L 10.71875 -9.25 L 7.1875 0 Z M 6.09375 0 "/></g></g></g><g fill="#004aad" fill-opacity="1"><g transform="translate(121.002131, 322.482015)"><g><path d="M 7.34375 0 L 1.4375 0 L 1.4375 -10.5625 L 7.34375 -10.5625 L 7.34375 -9.390625 L 2.765625 -9.390625 L 2.765625 -6.09375 L 7.078125 -6.09375 L 7.078125 -4.9375 L 2.765625 -4.9375 L 2.765625 -1.171875 L 7.34375 -1.171875 Z M 7.34375 0 "/></g></g></g><g fill="#004aad" fill-opacity="1"><g transform="translate(135.438837, 322.482015)"><g><path d="M 9.515625 0 L 8.1875 0 L 8.1875 -4.921875 L 2.765625 -4.921875 L 2.765625 0 L 1.4375 0 L 1.4375 -10.5625 L 2.765625 -10.5625 L 2.765625 -6.09375 L 8.1875 -6.09375 L 8.1875 -10.5625 L 9.515625 -10.5625 Z M 9.515625 0 "/></g></g></g><g fill="#004aad" fill-opacity="1"><g transform="translate(152.611503, 322.482015)"><g><path d="M 8.0625 0 L 6.796875 -3.265625 L 2.609375 -3.265625 L 1.34375 0 L 0 0 L 4.125 -10.609375 L 5.328125 -10.609375 L 9.4375 0 Z M 6.390625 -4.453125 L 5.203125 -7.65625 C 5.179688 -7.726562 5.132812 -7.867188 5.0625 -8.078125 C 4.988281 -8.285156 4.921875 -8.5 4.859375 -8.71875 C 4.796875 -8.945312 4.742188 -9.117188 4.703125 -9.234375 C 4.628906 -8.929688 4.546875 -8.632812 4.453125 -8.34375 C 4.367188 -8.050781 4.300781 -7.820312 4.25 -7.65625 L 3.046875 -4.453125 Z M 6.390625 -4.453125 "/></g></g></g><g fill="#004aad" fill-opacity="1"><g transform="translate(168.275705, 322.482015)"><g><path d="M 9.8125 0 L 8.25 0 L 2.609375 -8.78125 L 2.546875 -8.78125 C 2.566406 -8.425781 2.585938 -7.992188 2.609375 -7.484375 C 2.640625 -6.972656 2.65625 -6.445312 2.65625 -5.90625 L 2.65625 0 L 1.4375 0 L 1.4375 -10.5625 L 2.96875 -10.5625 L 8.609375 -1.8125 L 8.671875 -1.8125 C 8.660156 -1.976562 8.644531 -2.21875 8.625 -2.53125 C 8.613281 -2.84375 8.597656 -3.179688 8.578125 -3.546875 C 8.566406 -3.921875 8.5625 -4.273438 8.5625 -4.609375 L 8.5625 -10.5625 L 9.8125 -10.5625 Z M 9.8125 0 "/></g></g></g><g fill="#004aad" fill-opacity="1"><g transform="translate(185.726047, 322.482015)"><g/></g></g><g fill="#004aad" fill-opacity="1"><g transform="translate(195.76059, 322.482015)"><g><path d="M 9.515625 0 L 8.1875 0 L 8.1875 -4.921875 L 2.765625 -4.921875 L 2.765625 0 L 1.4375 0 L 1.4375 -10.5625 L 2.765625 -10.5625 L 2.765625 -6.09375 L 8.1875 -6.09375 L 8.1875 -10.5625 L 9.515625 -10.5625 Z M 9.515625 0 "/></g></g></g><g fill="#004aad" fill-opacity="1"><g transform="translate(212.933259, 322.482015)"><g><path d="M 10.65625 -5.296875 C 10.65625 -4.203125 10.46875 -3.25 10.09375 -2.4375 C 9.726562 -1.625 9.179688 -0.988281 8.453125 -0.53125 C 7.734375 -0.0820312 6.84375 0.140625 5.78125 0.140625 C 4.6875 0.140625 3.773438 -0.0820312 3.046875 -0.53125 C 2.328125 -0.988281 1.789062 -1.625 1.4375 -2.4375 C 1.082031 -3.257812 0.90625 -4.21875 0.90625 -5.3125 C 0.90625 -6.382812 1.082031 -7.328125 1.4375 -8.140625 C 1.789062 -8.953125 2.328125 -9.585938 3.046875 -10.046875 C 3.773438 -10.503906 4.691406 -10.734375 5.796875 -10.734375 C 6.859375 -10.734375 7.75 -10.503906 8.46875 -10.046875 C 9.1875 -9.597656 9.726562 -8.96875 10.09375 -8.15625 C 10.46875 -7.34375 10.65625 -6.390625 10.65625 -5.296875 Z M 2.3125 -5.296875 C 2.3125 -3.960938 2.59375 -2.910156 3.15625 -2.140625 C 3.71875 -1.378906 4.59375 -1 5.78125 -1 C 6.976562 -1 7.851562 -1.378906 8.40625 -2.140625 C 8.96875 -2.910156 9.25 -3.960938 9.25 -5.296875 C 9.25 -6.628906 8.972656 -7.671875 8.421875 -8.421875 C 7.867188 -9.179688 6.992188 -9.5625 5.796875 -9.5625 C 4.597656 -9.5625 3.71875 -9.179688 3.15625 -8.421875 C 2.59375 -7.671875 2.3125 -6.628906 2.3125 -5.296875 Z M 2.3125 -5.296875 "/></g></g></g><g fill="#004aad" fill-opacity="1"><g transform="translate(230.697495, 322.482015)"><g><path d="M 9.46875 -10.5625 L 9.46875 -3.734375 C 9.46875 -3.003906 9.316406 -2.34375 9.015625 -1.75 C 8.722656 -1.164062 8.269531 -0.703125 7.65625 -0.359375 C 7.050781 -0.0234375 6.285156 0.140625 5.359375 0.140625 C 4.035156 0.140625 3.03125 -0.210938 2.34375 -0.921875 C 1.664062 -1.640625 1.328125 -2.585938 1.328125 -3.765625 L 1.328125 -10.5625 L 2.65625 -10.5625 L 2.65625 -3.71875 C 2.65625 -2.851562 2.882812 -2.179688 3.34375 -1.703125 C 3.8125 -1.234375 4.507812 -1 5.4375 -1 C 6.382812 -1 7.070312 -1.253906 7.5 -1.765625 C 7.9375 -2.273438 8.15625 -2.929688 8.15625 -3.734375 L 8.15625 -10.5625 Z M 9.46875 -10.5625 "/></g></g></g><g fill="#004aad" fill-opacity="1"><g transform="translate(247.722282, 322.482015)"><g><path d="M 4.34375 -10.5625 C 5.65625 -10.5625 6.625 -10.3125 7.25 -9.8125 C 7.882812 -9.320312 8.203125 -8.570312 8.203125 -7.5625 C 8.203125 -7 8.097656 -6.53125 7.890625 -6.15625 C 7.679688 -5.78125 7.414062 -5.476562 7.09375 -5.25 C 6.769531 -5.019531 6.429688 -4.847656 6.078125 -4.734375 L 8.984375 0 L 7.421875 0 L 4.875 -4.359375 L 2.765625 -4.359375 L 2.765625 0 L 1.4375 0 L 1.4375 -10.5625 Z M 4.28125 -9.40625 L 2.765625 -9.40625 L 2.765625 -5.484375 L 4.34375 -5.484375 C 5.207031 -5.484375 5.835938 -5.65625 6.234375 -6 C 6.628906 -6.34375 6.828125 -6.84375 6.828125 -7.5 C 6.828125 -8.1875 6.617188 -8.675781 6.203125 -8.96875 C 5.785156 -9.257812 5.144531 -9.40625 4.28125 -9.40625 Z M 4.28125 -9.40625 "/></g></g></g><g fill="#004aad" fill-opacity="1"><g transform="translate(263.13507, 322.482015)"><g><path d="M 8.0625 0 L 6.796875 -3.265625 L 2.609375 -3.265625 L 1.34375 0 L 0 0 L 4.125 -10.609375 L 5.328125 -10.609375 L 9.4375 0 Z M 6.390625 -4.453125 L 5.203125 -7.65625 C 5.179688 -7.726562 5.132812 -7.867188 5.0625 -8.078125 C 4.988281 -8.285156 4.921875 -8.5 4.859375 -8.71875 C 4.796875 -8.945312 4.742188 -9.117188 4.703125 -9.234375 C 4.628906 -8.929688 4.546875 -8.632812 4.453125 -8.34375 C 4.367188 -8.050781 4.300781 -7.820312 4.25 -7.65625 L 3.046875 -4.453125 Z M 6.390625 -4.453125 "/></g></g></g><g fill="#004aad" fill-opacity="1"><g transform="translate(278.796353, 322.482015)"><g/></g></g><g fill="#004aad" fill-opacity="1"><g transform="translate(210.89734, 322.323958)"><g><path d="M 0.59375 -13.390625 L 0.390625 -14.484375 C 1.035156 -14.535156 1.601562 -14.617188 2.09375 -14.734375 C 2.582031 -14.847656 3.003906 -14.984375 3.359375 -15.140625 C 2.972656 -15.335938 2.660156 -15.59375 2.421875 -15.90625 C 2.179688 -16.21875 2.0625 -16.597656 2.0625 -17.046875 C 2.0625 -17.578125 2.25 -18.039062 2.625 -18.4375 C 3.007812 -18.84375 3.503906 -19.046875 4.109375 -19.046875 C 4.722656 -19.046875 5.1875 -18.828125 5.5 -18.390625 C 5.820312 -17.960938 5.984375 -17.488281 5.984375 -16.96875 C 5.984375 -15.945312 5.488281 -15.113281 4.5 -14.46875 C 3.519531 -13.820312 2.21875 -13.460938 0.59375 -13.390625 Z M 3.265625 -17.046875 C 3.265625 -16.796875 3.359375 -16.550781 3.546875 -16.3125 C 3.742188 -16.082031 3.988281 -15.90625 4.28125 -15.78125 C 4.632812 -16.113281 4.8125 -16.488281 4.8125 -16.90625 C 4.8125 -17.175781 4.75 -17.40625 4.625 -17.59375 C 4.5 -17.78125 4.316406 -17.875 4.078125 -17.875 C 3.835938 -17.875 3.640625 -17.789062 3.484375 -17.625 C 3.335938 -17.46875 3.265625 -17.273438 3.265625 -17.046875 Z M 3.265625 -17.046875 "/></g></g></g><g fill="#004aad" fill-opacity="1"><g transform="translate(108.456626, 346.954249)"><g><path d="M 0.921875 -13.84375 L 0.921875 -15.140625 L 6.078125 -16.65625 L 6.078125 -15.34375 Z M 0.921875 -13.84375 "/></g></g></g><g fill="#004aad" fill-opacity="1"><g transform="translate(249.000671, 303.598042)"><g><path d="M 0.03125 0.109375 L -0.265625 -1.765625 L 5.703125 -3.484375 C 6.015625 -3.566406 6.265625 -3.539062 6.453125 -3.40625 C 6.640625 -3.28125 6.769531 -3.101562 6.84375 -2.875 C 6.90625 -2.632812 6.859375 -2.382812 6.703125 -2.125 C 6.554688 -1.875 6.320312 -1.695312 6 -1.59375 Z M 0.03125 0.109375 "/></g></g></g><g fill="#004aad" fill-opacity="1"><g transform="translate(249.729363, 322.323958)"><g><path d="M 2.109375 -13.59375 C 1.503906 -13.59375 1.097656 -13.796875 0.890625 -14.203125 C 0.691406 -14.609375 0.59375 -15.039062 0.59375 -15.5 C 0.59375 -15.664062 0.601562 -15.84375 0.625 -16.03125 C 0.65625 -16.226562 0.691406 -16.453125 0.734375 -16.703125 L 1.890625 -17.015625 C 1.796875 -16.492188 1.75 -16.054688 1.75 -15.703125 C 1.75 -15.140625 1.941406 -14.859375 2.328125 -14.859375 C 2.554688 -14.859375 2.742188 -14.976562 2.890625 -15.21875 C 3.046875 -15.457031 3.132812 -15.9375 3.15625 -16.65625 L 3.15625 -17.34375 L 4.25 -17.75 L 4.25 -16.359375 C 4.25 -16.140625 4.289062 -15.945312 4.375 -15.78125 C 4.46875 -15.625 4.648438 -15.546875 4.921875 -15.546875 C 5.203125 -15.546875 5.382812 -15.628906 5.46875 -15.796875 C 5.5625 -15.960938 5.609375 -16.175781 5.609375 -16.4375 C 5.609375 -16.707031 5.578125 -16.972656 5.515625 -17.234375 C 5.453125 -17.503906 5.367188 -17.769531 5.265625 -18.03125 L 6.296875 -18.359375 C 6.453125 -18.046875 6.578125 -17.707031 6.671875 -17.34375 C 6.773438 -16.976562 6.828125 -16.640625 6.828125 -16.328125 C 6.828125 -15.828125 6.6875 -15.375 6.40625 -14.96875 C 6.125 -14.5625 5.679688 -14.359375 5.078125 -14.359375 C 4.585938 -14.359375 4.191406 -14.492188 3.890625 -14.765625 C 3.753906 -14.410156 3.523438 -14.125 3.203125 -13.90625 C 2.890625 -13.695312 2.523438 -13.59375 2.109375 -13.59375 Z M 2.109375 -13.59375 "/></g></g></g><g fill="#004aad" fill-opacity="1"><g transform="translate(174.270081, 322.323958)"><g><path d="M 2.6875 -14.21875 C 2.03125 -14.21875 1.535156 -14.414062 1.203125 -14.8125 C 0.878906 -15.207031 0.71875 -15.675781 0.71875 -16.21875 C 0.71875 -16.875 0.910156 -17.4375 1.296875 -17.90625 C 1.691406 -18.382812 2.195312 -18.625 2.8125 -18.625 C 3.363281 -18.625 3.820312 -18.390625 4.1875 -17.921875 C 4.550781 -17.460938 4.734375 -16.929688 4.734375 -16.328125 C 4.734375 -15.734375 4.539062 -15.234375 4.15625 -14.828125 C 3.78125 -14.421875 3.289062 -14.21875 2.6875 -14.21875 Z M 2.671875 -15.40625 C 2.929688 -15.40625 3.15625 -15.488281 3.34375 -15.65625 C 3.539062 -15.832031 3.640625 -16.054688 3.640625 -16.328125 C 3.640625 -16.617188 3.535156 -16.859375 3.328125 -17.046875 C 3.128906 -17.242188 2.914062 -17.34375 2.6875 -17.34375 C 2.394531 -17.34375 2.164062 -17.242188 2 -17.046875 C 1.84375 -16.847656 1.765625 -16.617188 1.765625 -16.359375 C 1.765625 -16.078125 1.847656 -15.847656 2.015625 -15.671875 C 2.191406 -15.492188 2.410156 -15.40625 2.671875 -15.40625 Z M 2.671875 -15.40625 "/></g></g></g><g fill="#004aad" fill-opacity="1"><g transform="translate(99.011044, 229.538682)"><g><path d="M 14.796875 -93.203125 L 9.574219 -98.421875 L 14.796875 -103.675781 L 20.050781 -98.421875 Z M 14.796875 -78.371094 L 9.574219 -83.625 L 14.796875 -88.84375 L 20.050781 -83.625 Z M 3.699219 -59.253906 C 3.699219 -66.546875 9.125 -70.246094 14.589844 -70.351562 C 20.222656 -70.453125 25.925781 -66.753906 25.925781 -59.253906 L 25.925781 0 L 3.699219 0 Z M 18.496094 -59.253906 C 18.496094 -61.707031 16.664062 -62.953125 14.796875 -62.953125 C 12.964844 -62.953125 11.097656 -61.707031 11.097656 -59.253906 L 11.097656 -7.398438 L 18.496094 -7.398438 Z M 18.496094 -59.253906 "/></g></g></g><g fill="#004aad" fill-opacity="1"><g transform="translate(128.634863, 229.538682)"><g><path d="M 3.699219 -37.058594 L 11.097656 -44.421875 L 11.097656 55.761719 C 11.097656 65.683594 0.0703125 63.679688 0.0703125 59.496094 C 1.902344 59.425781 3.699219 58.214844 3.699219 55.761719 Z M 3.699219 -37.058594 "/></g></g></g><g fill="#004aad" fill-opacity="1"><g transform="translate(139.730836, 229.538682)"><g><path d="M 7.398438 -59.253906 C 7.398438 -74.050781 29.625 -74.050781 29.625 -59.253906 L 29.625 0 L -3.527344 0 L -3.527344 -7.398438 L 22.230469 -7.398438 L 22.230469 -59.253906 C 22.230469 -64.164062 14.796875 -64.164062 14.796875 -59.253906 L 14.796875 -14.796875 L 7.398438 -22.160156 Z M 7.398438 -59.253906 "/></g></g></g><g fill="#004aad" fill-opacity="1"><g transform="translate(173.053305, 229.538682)"><g/></g></g><g fill="#004aad" fill-opacity="1"><g transform="translate(180.450616, 229.538682)"><g><path d="M 14.796875 -48.777344 L 9.574219 -54 L 14.796875 -59.253906 L 20.050781 -54 Z M 25.925781 -44.421875 L 25.925781 51.820312 C 25.925781 66.652344 3.699219 66.652344 3.699219 51.820312 L 3.699219 -37.058594 L 11.097656 -44.421875 L 11.097656 51.820312 C 11.097656 56.765625 18.496094 56.765625 18.496094 51.820312 L 18.496094 -37.058594 Z M 25.925781 -44.421875 "/></g></g></g><g fill="#004aad" fill-opacity="1"><g transform="translate(206.375774, 229.538682)"><g><path d="M 7.398438 -59.253906 C 7.398438 -74.050781 29.625 -74.050781 29.625 -59.253906 L 29.625 51.820312 C 29.625 66.652344 7.398438 66.652344 7.398438 51.820312 L 7.398438 0 L -3.527344 0 L -3.527344 -7.398438 L 7.398438 -7.398438 Z M 22.230469 -59.253906 C 22.230469 -64.164062 14.796875 -64.164062 14.796875 -59.253906 L 14.796875 -7.398438 L 22.230469 -7.398438 Z M 22.230469 0 L 14.796875 0 L 14.796875 51.820312 C 14.796875 56.765625 22.230469 56.765625 22.230469 51.820312 Z M 22.230469 0 "/></g></g></g><g fill="#004aad" fill-opacity="1"><g transform="translate(235.999592, 229.538682)"><g><path d="M 7.398438 -59.21875 C 7.398438 -74.015625 29.625 -74.015625 29.625 -59.21875 L 29.625 7.398438 C 29.625 22.195312 7.398438 22.195312 7.398438 7.398438 L 7.398438 0 L -3.527344 0 L -3.527344 -7.398438 L 7.398438 -7.398438 Z M 22.230469 -59.21875 C 22.230469 -64.164062 14.796875 -64.164062 14.796875 -59.21875 L 14.796875 7.398438 C 14.796875 12.339844 22.230469 12.339844 22.230469 7.398438 Z M 22.230469 -59.21875 "/></g></g></g><g fill="#ffffff" fill-opacity="1"><g transform="translate(186.726714, 285.398215)"><g/></g></g><g fill="#ffffff" fill-opacity="1"><g transform="translate(186.726714, 303.765428)"><g/></g></g><g clip-path="url(#0fec44de6f)"><g clip-path="url(#d26ba5414f)"><g clip-path="url(#5035447d82)"><g clip-path="url(#4a865f0018)"><g clip-path="url(#72c59f3438)"><path fill="#ffd720" d="M 274.332031 176.089844 C 274.449219 175.742188 274.570312 175.394531 274.683594 175.046875 C 288.460938 132.214844 265.976562 86.671875 224.46875 73.320312 C 182.960938 59.96875 138.144531 83.867188 124.367188 126.695312 C 124.253906 127.046875 124.152344 127.398438 124.042969 127.75 L 274.332031 176.089844 " fill-opacity="1" fill-rule="nonzero"/></g></g></g></g></g><g clip-path="url(#ea4d73847a)"><g clip-path="url(#2f5bb3081d)"><g clip-path="url(#bc665b2717)"><g clip-path="url(#400c10ff8a)"><g clip-path="url(#9885da818b)"><path fill="#fbe072" d="M 94.550781 100.054688 L 132.144531 108.863281 C 132.144531 108.863281 134.453125 124.820312 147.949219 132.5625 C 158.117188 138.394531 176.195312 143.875 176.195312 143.875 C 176.195312 143.875 102.019531 132.148438 94.550781 100.054688 " fill-opacity="1" fill-rule="nonzero"/></g></g></g></g></g><g clip-path="url(#5be6903f8d)"><g clip-path="url(#d0d38d7210)"><g clip-path="url(#c1ca57a086)"><path fill="#fbe072" d="M 138.246094 95.503906 L 143.03125 102.027344 C 143.03125 102.027344 147.378906 104.675781 151.296875 102.195312 C 155.21875 99.714844 178.179688 69.089844 221.363281 82.976562 C 259.367188 95.203125 266.714844 139.320312 266.714844 139.320312 C 266.714844 139.320312 264.5 141.296875 271.589844 143.578125 C 278.679688 145.859375 284.207031 144.324219 284.207031 144.324219 C 284.207031 144.324219 285.472656 86.152344 226.449219 67.164062 C 167.425781 48.179688 138.246094 95.503906 138.246094 95.503906 " fill-opacity="1" fill-rule="nonzero"/></g></g></g><g clip-path="url(#06c366902a)"><g clip-path="url(#c05a183100)"><g clip-path="url(#e96d64cee4)"><path fill="#fbe072" d="M 170.015625 140.953125 L 150.808594 134.773438 L 156.535156 116.964844 L 175.742188 123.144531 L 170.015625 140.953125 " fill-opacity="1" fill-rule="nonzero"/></g></g></g><g clip-path="url(#2d552e5552)"><g clip-path="url(#9ff4563650)"><g clip-path="url(#9a5ef83861)"><path fill="#fbe072" d="M 248.65625 166.246094 L 229.449219 160.070312 L 235.179688 142.261719 L 254.382812 148.4375 L 248.65625 166.246094 " fill-opacity="1" fill-rule="nonzero"/></g></g></g><g clip-path="url(#d551304841)"><g clip-path="url(#768ac05bbb)"><g clip-path="url(#0892f5aceb)"><g clip-path="url(#bfe2ec06f3)"><g clip-path="url(#54784366c1)"><path fill="#fbe072" d="M 274.332031 176.089844 L 139.992188 132.878906 L 141.542969 128.054688 L 275.886719 171.265625 L 274.332031 176.089844 " fill-opacity="1" fill-rule="nonzero"/></g></g></g></g></g></svg>